<svg width="48" height="48" xmlns="http://www.w3.org/2000/svg" xmlns:xlink="http://www.w3.org/1999/xlink" overflow="hidden"><defs><clipPath id="clip0"><rect x="39" y="356" width="48" height="48"/></clipPath></defs><g clip-path="url(#clip0)" transform="translate(-39 -356)"><path d="M40.7277 98.6889C41.8864 100.689 43.3654 102.786 45.7945 104.786 45.2836 105.479 44.9141 105.984 44.4032 106.714 56.9485 115.358 69.3678 115.001 81.6592 106.881 81.2148 106.214 80.7703 105.547 80.3257 104.88 80.4076 104.821 80.4882 104.761 80.5673 104.701 83.023 102.846 84.2296 100.849 85.5251 99.0037 84.2233 99.2575 82.8406 99.6194 81.5389 99.8735 81.4437 98.635 81.5639 97.4507 81.4687 96.2124 79.7558 98.5667 77.5332 100.632 75.6765 102.117 76.5022 102.18 77.6257 102.118 78.4512 102.182 68.0686 108.825 58.0092 109.015 47.6269 101.943 48.538 101.955 49.4715 102.049 50.4124 101.98 48.1737 99.9157 46.259 97.8 44.7828 95.7363 44.7512 97.0379 44.6382 98.3398 44.6063 99.6414 43.2729 99.3239 42.0611 99.0066 40.7277 98.6889Z" stroke="#1B1918" stroke-width="0.327355" stroke-linecap="round" stroke-linejoin="round" fill="none" transform="matrix(1.00716 0 0 1 -0.581848 290.615)"/><path d="M75.7038 102.14 76.5991 103.267 78.3116 102.237Z" stroke="#1B1918" stroke-width="0.327355" stroke-linecap="round" stroke-linejoin="round" fill="#1B1918" fill-rule="evenodd" transform="matrix(1.00716 0 0 1 -0.581848 290.615)"/><path d="M50.3933 102.012 49.4679 103.095 47.7098 101.973Z" stroke="#1B1918" stroke-width="0.327355" stroke-linecap="round" stroke-linejoin="round" fill="#1B1918" fill-rule="evenodd" transform="matrix(1.00716 0 0 1 -0.581848 290.615)"/><path d="M80.3904 104.974 78.4664 102.229" stroke="#1B1918" stroke-width="0.327355" stroke-linecap="round" stroke-linejoin="round" fill="none" transform="matrix(1.00716 0 0 1 -0.581848 290.615)"/><path d="M45.7436 104.812 47.6457 102.007" stroke="#1B1918" stroke-width="0.327355" stroke-linecap="round" stroke-linejoin="round" fill="none" transform="matrix(1.00716 0 0 1 -0.581848 290.615)"/><path d="M47.4347 78.978C49.9975 77.9436 52.3669 78.3377 54.9297 79.1316 54.8614 83.7619 54.9865 88.6341 54.9182 93.2644 57.8758 95.0586 60.0262 97.4695 61.1578 101.742 61.2827 102.051 60.804 102.234 60.6454 101.999 57.4501 97.8464 52.9262 96.6305 47.3834 97.1743 47.4006 91.1089 47.4175 85.0434 47.4347 78.978Z" stroke="#1B1918" stroke-width="0.327398" stroke-linecap="round" stroke-linejoin="round" fill="#009035" fill-rule="evenodd" transform="matrix(1.00716 0 0 1 -0.581848 290.615)"/><path d="M78.8234 78.978C76.2606 77.9436 73.8912 78.3377 71.3284 79.1316 71.3967 83.7619 71.2716 88.6341 71.3399 93.2644 68.3823 95.0586 66.2317 97.4695 65.1001 101.742 64.9754 102.051 65.4539 102.234 65.6127 101.999 68.8078 97.8464 73.3319 96.6305 78.8747 97.1743 78.8575 91.1089 78.8406 85.0434 78.8234 78.978Z" stroke="#1B1918" stroke-width="0.327398" stroke-linecap="round" stroke-linejoin="round" fill="#009035" fill-rule="evenodd" transform="matrix(1.00716 0 0 1 -0.581848 290.615)"/><path d="M55.6943 92.636C58.767 94.3258 60.8223 97.5926 62.4474 101.764 62.5129 101.865 62.722 101.852 62.8107 101.757L62.8107 92.2336C62.2359 92.0712 61.8125 91.5416 61.8125 90.9161 61.8125 90.2904 62.2357 89.7603 62.8107 89.5979L62.8107 82.1504C60.5052 77.7203 58.203 75.1753 55.6943 73.929Z" stroke="#1B1918" stroke-width="0.327398" stroke-linecap="round" stroke-linejoin="round" fill="#009035" fill-rule="evenodd" transform="matrix(1.00716 0 0 1 -0.581848 290.615)"/><path d="M70.5636 92.636C67.4911 94.3258 65.4359 97.5926 63.8107 101.764 63.7452 101.865 63.5361 101.852 63.4474 101.757L63.4474 92.2589C64.0752 92.1346 64.551 91.5793 64.551 90.9161 64.551 90.2526 64.0752 89.6967 63.4474 89.5726L63.4474 82.1504C65.7529 77.7203 68.0551 75.1753 70.5636 73.929Z" stroke="#1B1918" stroke-width="0.327398" stroke-linecap="round" stroke-linejoin="round" fill="#009035" fill-rule="evenodd" transform="matrix(1.00716 0 0 1 -0.581848 290.615)"/><path d="M42.1112 92.9094 42.2315 93.4297 41.7413 93.7606 41.9598 94.7067 42.5426 94.7776 42.6597 95.2847 40.0799 94.9093 39.9633 94.4038ZM41.3782 94.0057 40.5752 94.5347 41.5273 94.6516ZM42.0938 92.6627 39.6827 92.9588 39.5569 91.9337C39.5253 91.676 39.524 91.4864 39.5531 91.3642 39.5819 91.2423 39.6472 91.139 39.7493 91.0552 39.8519 90.9714 39.9739 90.9212 40.1164 90.9038 40.2971 90.8815 40.4536 90.9165 40.5845 91.0081 40.7149 91.0998 40.8091 91.2499 40.8655 91.458 40.9143 91.3447 40.971 91.2495 41.0361 91.1721 41.1012 91.0945 41.2202 90.9865 41.3935 90.8471L41.8276 90.4946 41.8991 91.0768 41.4174 91.4932C41.2452 91.6414 41.1379 91.7414 41.0946 91.7933 41.0516 91.8453 41.0244 91.8983 41.0121 91.9522 41.0004 92.0061 41.0015 92.0886 41.0155 92.2008L41.0274 92.299 42.034 92.1755ZM40.6422 92.3465 40.5981 91.9865C40.5694 91.753 40.5419 91.6082 40.5151 91.5522 40.4884 91.4968 40.4486 91.4554 40.3962 91.4283 40.344 91.4016 40.2818 91.3922 40.2095 91.4011 40.1281 91.4111 40.0655 91.441 40.021 91.4904 39.9762 91.5399 39.9524 91.6048 39.9486 91.6856 39.9484 91.7254 39.9601 91.8442 39.9845 92.0419L40.0309 92.4213ZM41.8005 90.2255 39.3728 90.1408 39.3982 89.4072 41.0698 89.0246 39.429 88.5314 39.4546 87.7961 41.8823 87.8809 41.8664 88.3359 39.9554 88.2693 41.8497 88.8182 41.8331 89.2901 39.9052 89.7037 41.8164 89.7705ZM41.9593 86.7731 40.9466 86.6308 39.4298 87.3161 39.51 86.7464 40.5412 86.3139 39.6676 85.6257 39.7461 85.0661 41.018 86.1468 42.0274 86.2887ZM42.4026 84.2894 40.0674 83.6198 40.2844 82.8635C40.3665 82.5771 40.432 82.3935 40.4804 82.3131 40.5535 82.1894 40.6619 82.0986 40.8053 82.042 40.9487 81.9856 41.1133 81.9839 41.2986 82.0371 41.4422 82.0783 41.5553 82.1389 41.6376 82.2191 41.7207 82.2993 41.7784 82.3871 41.8113 82.4836 41.844 82.5795 41.8575 82.6715 41.8516 82.7593 41.8416 82.8783 41.8064 83.0446 41.7451 83.2584L41.6571 83.5655 42.5377 83.8181ZM40.5979 83.2618 41.26 83.4516 41.3341 83.1939C41.3873 83.0079 41.4111 82.88 41.4045 82.8107 41.3981 82.7411 41.3739 82.6813 41.3322 82.6304 41.29 82.5801 41.2348 82.5447 41.1657 82.525 41.0808 82.5006 41.0036 82.5057 40.9338 82.5396 40.8647 82.5733 40.8117 82.627 40.7762 82.6993 40.7491 82.7528 40.712 82.8643 40.6632 83.034ZM40.7741 81.2191 40.9578 80.7645 42.1776 81.2572C42.371 81.3355 42.4993 81.3805 42.5609 81.3926 42.661 81.4106 42.7539 81.3936 42.8389 81.3434 42.9246 81.2924 42.9929 81.2036 43.0442 81.0767 43.0964 80.9478 43.1096 80.8396 43.083 80.7527 43.057 80.6659 43.008 80.6004 42.9367 80.5563 42.865 80.5115 42.7401 80.4536 42.5619 80.3817L41.3158 79.8782 41.4995 79.4236 42.6826 79.9015C42.9532 80.0109 43.1393 80.1 43.2411 80.1698 43.3427 80.2396 43.4184 80.3225 43.4689 80.4199 43.5187 80.5168 43.5442 80.6303 43.5452 80.7588 43.5461 80.888 43.5104 81.0418 43.4383 81.2201 43.3514 81.435 43.2608 81.5881 43.1662 81.6793 43.0714 81.7703 42.9715 81.8318 42.8663 81.8643 42.7611 81.8969 42.6603 81.9056 42.5651 81.891 42.424 81.8687 42.2279 81.8064 41.9755 81.7046ZM41.8792 78.6179 42.3647 77.7769C42.461 77.6104 42.5394 77.4899 42.6009 77.4163 42.6618 77.3423 42.7329 77.2861 42.8143 77.2469 42.8958 77.2076 42.9848 77.1879 43.0833 77.1873 43.181 77.1862 43.2758 77.2123 43.3664 77.2647 43.4648 77.3215 43.5401 77.4002 43.5919 77.5005 43.6434 77.6015 43.6636 77.709 43.6523 77.8233 43.7635 77.7171 43.8841 77.6549 44.0135 77.6382 44.1435 77.621 44.2691 77.6479 44.3906 77.7181 44.4861 77.7731 44.5665 77.849 44.6314 77.9459 44.6956 78.0424 44.7332 78.1451 44.7425 78.2531 44.7521 78.361 44.7306 78.4753 44.6778 78.5958 44.6445 78.6707 44.5508 78.8444 44.3964 79.1163L43.9828 79.8326ZM42.4747 78.395 42.9611 78.6758 43.1219 78.3975C43.2173 78.2321 43.2744 78.1277 43.2926 78.0846 43.3261 78.0075 43.3342 77.9358 43.3166 77.87 43.299 77.8043 43.2561 77.7521 43.188 77.7126 43.1229 77.6751 43.0597 77.6621 42.9984 77.6745 42.9369 77.6872 42.8815 77.7266 42.8326 77.7922 42.8033 77.8316 42.731 77.9512 42.6156 78.151ZM43.3113 78.8779 43.8738 79.2026 44.1005 78.8098C44.1889 78.6565 44.2411 78.5572 44.256 78.511 44.2812 78.4412 44.2827 78.3733 44.2615 78.3082 44.2396 78.2429 44.1915 78.1884 44.117 78.1453 44.0538 78.1088 43.9915 78.0938 43.9297 78.0987 43.868 78.104 43.8101 78.1294 43.7567 78.1756 43.7032 78.2219 43.6207 78.3421 43.5094 78.5349ZM45.2068 77.6991 43.2576 76.2829 43.5458 75.886 45.1637 77.0617 45.8804 76.075 46.2117 76.3157ZM46.4243 76.0665 44.5364 74.5377 44.845 74.1568 46.7329 75.6854ZM47.4568 73.5839 47.8952 73.3465C48.0352 73.5835 48.0928 73.8072 48.0676 74.0189 48.0426 74.2297 47.9393 74.4295 47.7582 74.617 47.5342 74.8489 47.2705 74.9632 46.9681 74.9596 46.6652 74.9558 46.3761 74.8211 46.1014 74.5559 45.8106 74.2751 45.6575 73.9818 45.6412 73.6759 45.6255 73.3707 45.7356 73.0956 45.9721 72.8507 46.1782 72.6371 46.4092 72.5242 46.6646 72.513 46.816 72.5051 46.9808 72.5495 47.1592 72.6447L46.9051 73.0746C46.7948 73.0074 46.6815 72.9815 46.5653 72.9966 46.4497 73.0114 46.3466 73.0662 46.2563 73.1597 46.1313 73.2891 46.076 73.4392 46.0913 73.6098 46.1063 73.7799 46.2179 73.9655 46.4262 74.1667 46.6472 74.3801 46.8427 74.4927 47.0133 74.5031 47.184 74.5146 47.3306 74.4565 47.4532 74.3296 47.5439 74.2357 47.5919 74.1262 47.5974 74.0011 47.6031 73.8762 47.556 73.737 47.4568 73.5839ZM48.8677 72.3925 49.2149 72.0616C49.336 72.1707 49.4543 72.2277 49.5701 72.2326 49.6853 72.2375 49.8017 72.1946 49.9195 72.1026 50.0437 72.0054 50.1171 71.9058 50.1388 71.8035 50.1608 71.7015 50.1445 71.6152 50.0893 71.5448 50.0539 71.4994 50.0107 71.4716 49.9591 71.4608 49.9078 71.4493 49.8399 71.4578 49.7553 71.4864 49.6978 71.5057 49.5727 71.5588 49.3805 71.6444 49.1332 71.755 48.9385 71.8052 48.7966 71.7955 48.5968 71.7823 48.4377 71.6998 48.3194 71.5484 48.243 71.4508 48.1995 71.3382 48.1885 71.2099 48.1775 71.082 48.2067 70.9551 48.2759 70.8293 48.3457 70.7038 48.4534 70.5837 48.6006 70.4688 48.8411 70.2806 49.0628 70.1922 49.2666 70.2024 49.4704 70.2132 49.6439 70.304 49.7875 70.4751L49.4144 70.7939C49.3209 70.7082 49.2299 70.6652 49.1421 70.665 49.0541 70.6643 48.9557 70.7065 48.8471 70.7914 48.7347 70.8792 48.6642 70.971 48.6371 71.0667 48.6191 71.1282 48.6297 71.184 48.6683 71.2334 48.7037 71.2788 48.7531 71.3025 48.8165 71.3047 48.8973 71.3078 49.0492 71.258 49.2717 71.1551 49.4946 71.0527 49.6696 70.9901 49.7966 70.967 49.9237 70.9443 50.0448 70.9538 50.1604 70.9963 50.2756 71.0389 50.3804 71.1208 50.4747 71.2417 50.5604 71.3513 50.6107 71.478 50.6241 71.6211 50.6378 71.7645 50.6075 71.903 50.5324 72.0364 50.4576 72.1702 50.3364 72.3022 50.1704 72.432 49.9284 72.6212 49.6989 72.7105 49.4819 72.7001 49.2647 72.6895 49.0596 72.587 48.8677 72.3925ZM52.1003 69.9873 52.5828 69.8632C52.6615 70.1267 52.6632 70.3578 52.5877 70.5572 52.5122 70.7555 52.3637 70.9246 52.1425 71.0627 51.8691 71.2336 51.5857 71.2805 51.293 71.2039 51.0001 71.1269 50.7522 70.9265 50.5498 70.6026 50.3356 70.2596 50.258 69.9381 50.3163 69.6376 50.3748 69.3374 50.5481 69.0971 50.837 68.9166 51.0888 68.7593 51.3399 68.7058 51.5906 68.7565 51.7395 68.7856 51.8886 68.8685 52.0388 69.004L51.6882 69.3599C51.5972 69.2679 51.4937 69.2153 51.3774 69.2019 51.2614 69.1883 51.1482 69.2163 51.0379 69.2853 50.8854 69.3805 50.7952 69.5128 50.7689 69.6821 50.7424 69.8507 50.8058 70.0579 50.9592 70.3035 51.1221 70.564 51.2845 70.7205 51.4474 70.7721 51.6101 70.8245 51.7664 70.8035 51.9162 70.7099 52.0269 70.6408 52.1001 70.5464 52.1357 70.4261 52.1713 70.3063 52.1592 70.1597 52.1003 69.9873ZM53.35 70.3089 52.362 68.0896 52.8104 67.8899 53.1992 68.7631 54.077 68.3722 53.6883 67.4989 54.1362 67.2996 55.1244 69.5188 54.6762 69.7182 54.2444 68.7478 53.3665 69.1387 53.7986 70.1091ZM55.1059 68.2052C55.0296 67.9696 55.0003 67.7607 55.0188 67.5783 55.0334 67.4438 55.0705 67.3144 55.1312 67.1914 55.1918 67.0688 55.2686 66.967 55.3622 66.8868 55.4865 66.7787 55.6423 66.6947 55.8307 66.6336 56.1711 66.5229 56.4774 66.5398 56.7506 66.6849 57.0235 66.8291 57.2212 67.0898 57.3434 67.4657 57.4645 67.8389 57.4577 68.1637 57.3234 68.4405 57.189 68.7166 56.9521 68.9101 56.6131 69.0203 56.2695 69.1319 55.9622 69.1158 55.6913 68.9724 55.4205 68.8286 55.2253 68.5726 55.1059 68.2052ZM55.5813 68.0334C55.6663 68.295 55.7914 68.4738 55.956 68.5696 56.1208 68.6653 56.296 68.6827 56.482 68.6222 56.6676 68.562 56.7987 68.4456 56.8746 68.2723 56.9499 68.0996 56.9444 67.8797 56.8575 67.6118 56.7713 67.3471 56.6492 67.1685 56.491 67.0754 56.3325 66.9829 56.1569 66.9681 55.9649 67.0304 55.7724 67.0932 55.639 67.2094 55.5641 67.3795 55.4894 67.5494 55.4949 67.7673 55.5813 68.0334ZM57.8113 67.3363C57.7682 67.0924 57.7684 66.8815 57.8123 66.7032 57.8454 66.5721 57.9001 66.4493 57.9771 66.3358 58.0543 66.223 58.1447 66.1328 58.2484 66.0664 58.3865 65.9765 58.5526 65.915 58.7475 65.8806 59.1002 65.8185 59.4012 65.8781 59.6515 66.0596 59.9017 66.2406 60.061 66.526 60.1297 66.9155 60.1978 67.3019 60.1459 67.6224 59.9745 67.8778 59.8029 68.1327 59.5414 68.2914 59.1903 68.3533 58.8344 68.4161 58.5324 68.3571 58.2843 68.1777 58.0359 67.9974 57.8785 67.7168 57.8113 67.3363ZM58.3059 67.2323C58.3536 67.5032 58.4529 67.6975 58.6022 67.8154 58.7522 67.9331 58.9231 67.9747 59.1159 67.9408 59.3081 67.9068 59.454 67.8099 59.5533 67.6489 59.6519 67.4883 59.6769 67.2697 59.6281 66.9922 59.5798 66.7184 59.4837 66.5246 59.3399 66.4102 59.1959 66.2968 59.0241 66.2575 58.8253 66.2925 58.626 66.3277 58.4775 66.4244 58.3797 66.5825 58.2823 66.7403 58.2571 66.9568 58.3059 67.2323ZM60.7054 68.0839 60.5374 65.6804 61.0267 65.6463 61.1661 67.6413 62.3827 67.5562 62.4111 67.9647ZM62.6554 67.1445 63.1335 67.1059C63.159 67.2671 63.2152 67.3857 63.3021 67.4625 63.3884 67.5386 63.506 67.5787 63.6553 67.5812 63.8129 67.584 63.9329 67.5526 64.0139 67.4869 64.0954 67.4213 64.1367 67.3441 64.1384 67.2548 64.1395 67.1971 64.1232 67.1481 64.0901 67.1074 64.0574 67.0661 63.9993 67.03 63.9153 66.999 63.8587 66.9778 63.728 66.9405 63.5248 66.886 63.2631 66.8164 63.0801 66.7328 62.9759 66.6359 62.8289 66.5 62.7572 66.3358 62.7606 66.1434 62.7628 66.0198 62.7999 65.9048 62.8718 65.7981 62.9437 65.6919 63.0465 65.6117 63.1793 65.5574 63.3125 65.5037 63.4718 65.4783 63.6585 65.4815 63.9639 65.4868 64.1919 65.5576 64.3437 65.6936 64.4952 65.8304 64.573 66.01 64.5771 66.2336L64.0865 66.2463C64.0676 66.1209 64.0239 66.0304 63.956 65.9748 63.8879 65.9188 63.7849 65.8897 63.647 65.8874 63.5045 65.8849 63.3918 65.9118 63.3106 65.9693 63.258 66.0056 63.2311 66.0556 63.2298 66.1184 63.2287 66.1761 63.2525 66.2257 63.3002 66.2673 63.3611 66.3203 63.5106 66.3772 63.7482 66.4374 63.9857 66.498 64.1613 66.5593 64.2744 66.6213 64.3876 66.6839 64.4755 66.7674 64.5387 66.8733 64.6014 66.9789 64.6314 67.1085 64.6286 67.2616 64.6263 67.4007 64.5855 67.5308 64.506 67.6504 64.4263 67.7707 64.3158 67.8591 64.1732 67.9155 64.0307 67.9724 63.8538 67.9989 63.643 67.995 63.3358 67.9897 63.1013 67.9149 62.9392 67.7702 62.7772 67.6254 62.6824 67.4167 62.6554 67.1445ZM68.1361 68.1925 67.7963 68.4971C67.6722 68.407 67.5579 68.2926 67.4531 68.1541 67.3409 68.2239 67.227 68.2706 67.1106 68.2924 66.9948 68.3145 66.8618 68.3123 66.7114 68.2858 66.4134 68.2332 66.2043 68.1102 66.0834 67.9159 65.9899 67.7662 65.9583 67.6067 65.9879 67.4381 66.0151 67.2847 66.0851 67.1547 66.1979 67.0489 66.311 66.9424 66.466 66.8601 66.6635 66.802 66.5994 66.6906 66.5538 66.5873 66.528 66.4925 66.5023 66.3977 66.4961 66.3112 66.5101 66.2327 66.5356 66.0885 66.6151 65.9754 66.7485 65.8957 66.8824 65.8153 67.0561 65.7943 67.2705 65.8321 67.4771 65.8685 67.6294 65.9498 67.7272 66.0758 67.825 66.2015 67.8608 66.3411 67.8339 66.4932 67.8169 66.5901 67.7717 66.6768 67.6983 66.7536 67.6256 66.8308 67.492 66.9082 67.297 66.9878L67.5526 67.4854C67.6039 67.4226 67.654 67.3378 67.7021 67.2309L68.0998 67.398C68.0328 67.5378 67.9777 67.6389 67.935 67.7015 67.8928 67.7641 67.85 67.8152 67.8076 67.8546 67.8498 67.9115 67.9068 67.9755 67.9781 68.0472 68.0487 68.1189 68.1017 68.1669 68.1361 68.1925ZM67.1172 66.6718 67.2582 66.5988C67.3619 66.5443 67.42 66.4821 67.4324 66.4126 67.4427 66.3534 67.4292 66.2993 67.3925 66.2503 67.3558 66.2015 67.2998 66.1703 67.2247 66.157 67.1522 66.1443 67.0917 66.1525 67.044 66.1816 66.9965 66.2104 66.9678 66.249 66.9594 66.297 66.9494 66.3538 66.9723 66.4285 67.0279 66.521ZM66.8501 67.1375C66.735 67.1723 66.645 67.2226 66.5795 67.2883 66.514 67.3543 66.4743 67.4262 66.4605 67.5047 66.4429 67.6037 66.4616 67.6903 66.5152 67.7641 66.5687 67.8379 66.6501 67.8843 66.7587 67.9036 66.8306 67.9162 66.9021 67.9145 66.9734 67.8977 67.0446 67.8816 67.1252 67.8476 67.2154 67.7957ZM71.0402 68.4882 71.4455 68.7781C71.2943 69.0078 71.1182 69.1576 70.9169 69.2278 70.7165 69.2976 70.4917 69.2925 70.2437 69.2119 69.937 69.1122 69.7188 68.9253 69.5894 68.6519 69.4602 68.3779 69.4543 68.0591 69.5722 67.696 69.6974 67.3115 69.8938 67.0453 70.1614 66.8966 70.4291 66.7488 70.7246 66.7269 71.0482 66.8323 71.3307 66.9239 71.5333 67.082 71.6555 67.3066 71.7289 67.4393 71.7613 67.6069 71.7539 67.809L71.2559 67.7692C71.2682 67.6404 71.2419 67.5272 71.1772 67.4294 71.1131 67.332 71.019 67.2633 70.8953 67.2232 70.7241 67.1674 70.5649 67.1836 70.4183 67.2722 70.2719 67.3602 70.154 67.542 70.0645 67.8173 69.9697 68.1094 69.9542 68.3344 70.0193 68.4924 70.084 68.6509 70.2005 68.7571 70.3682 68.8116 70.4925 68.8519 70.6119 68.8473 70.7269 68.7972 70.8417 68.7478 70.946 68.6443 71.0402 68.4882ZM72.0421 68.5594C72.1545 68.3389 72.2816 68.1705 72.4237 68.0544 72.5291 67.9698 72.6468 67.9047 72.7766 67.8604 72.9062 67.8167 73.0326 67.7991 73.1554 67.8084 73.3198 67.8196 73.4893 67.8706 73.6658 67.9605 73.9848 68.1229 74.1894 68.3518 74.28 68.6473 74.3708 68.9425 74.3265 69.2664 74.1468 69.6187 73.9686 69.9684 73.7343 70.193 73.4437 70.2938 73.1533 70.3941 72.849 70.3634 72.5314 70.2015 72.2095 70.0376 72.0035 69.8087 71.9134 69.5158 71.8235 69.2225 71.8667 68.9037 72.0421 68.5594ZM72.4994 68.7741C72.3747 69.0191 72.337 69.2341 72.3853 69.418 72.4343 69.6023 72.5459 69.7385 72.7202 69.8274 72.8941 69.916 73.0689 69.9264 73.2452 69.8575 73.4204 69.7888 73.5722 69.6293 73.6999 69.3782 73.8263 69.1302 73.8662 68.9177 73.8202 68.74 73.7735 68.5626 73.6598 68.4279 73.48 68.3363 73.2997 68.2443 73.1228 68.2324 72.9497 68.2996 72.7768 68.3671 72.6267 68.5247 72.4994 68.7741ZM73.9546 70.921 75.2315 68.8776 75.6474 69.1374 74.5875 70.8336 75.6217 71.4796 75.4048 71.8271ZM75.6727 72.0631 77.1561 70.1644 77.5425 70.4664 76.3113 72.0423 77.2721 72.7932 77.0199 73.1158ZM77.2802 73.361 78.9369 71.5844 80.254 72.8127 79.9736 73.1134 79.0151 72.2197 78.6478 72.6133 79.5397 73.445 79.2607 73.744 78.3691 72.9124 77.9182 73.396 78.9104 74.3214 78.6312 74.6208ZM80.3128 75.2279 80.6311 74.9702 81.2963 75.7916 80.5442 76.4008C80.4021 76.3834 80.2404 76.3229 80.0587 76.219 79.8775 76.1147 79.7238 75.9851 79.598 75.83 79.4383 75.6326 79.3401 75.4268 79.3038 75.213 79.268 74.999 79.2968 74.7929 79.3914 74.5941 79.4858 74.3954 79.6234 74.2229 79.8046 74.0762 80.001 73.9171 80.2095 73.8168 80.429 73.775 80.6483 73.7343 80.8632 73.7597 81.0734 73.8528 81.2341 73.9228 81.3875 74.0484 81.5334 74.2287 81.723 74.4628 81.8223 74.686 81.8308 74.8968 81.839 75.1085 81.7718 75.3032 81.6288 75.4816L81.2517 75.1604C81.3226 75.0586 81.3555 74.949 81.3497 74.8321 81.344 74.7152 81.2967 74.6022 81.2076 74.4923 81.0727 74.3258 80.913 74.2361 80.7276 74.2232 80.542 74.2104 80.3461 74.2883 80.1382 74.4567 79.9144 74.6378 79.7863 74.8238 79.7549 75.0145 79.7233 75.2046 79.7732 75.3804 79.9038 75.5416 79.9687 75.6215 80.0491 75.6888 80.1456 75.7439 80.2415 75.7986 80.3357 75.8366 80.4267 75.8585L80.6663 75.6644ZM80.5423 76.997 82.5795 75.6739 83.5602 77.1843 83.2156 77.4083 82.5016 76.3092 82.0501 76.6023 82.7144 77.625 82.3714 77.8477 81.7071 76.8252 81.1527 77.1851 81.8916 78.3233 81.5482 78.5462ZM82.3744 78.4276 82.6399 78.827C82.5114 78.9275 82.4348 79.034 82.4098 79.1473 82.385 79.2597 82.407 79.3819 82.477 79.5138 82.5513 79.6531 82.6367 79.7429 82.7337 79.7817 82.8302 79.8211 82.918 79.8201 82.9969 79.7781 83.0478 79.7509 83.0828 79.7132 83.1023 79.6644 83.1227 79.6158 83.1261 79.5473 83.1125 79.4591 83.1036 79.399 83.0728 79.2667 83.0219 79.0626 82.956 78.7999 82.9403 78.5994 82.9746 78.4613 83.0223 78.2668 83.1311 78.1245 83.3008 78.0342 83.4103 77.9761 83.5286 77.9527 83.6569 77.964 83.7846 77.9754 83.9047 78.0263 84.0165 78.1163 84.128 78.2068 84.2275 78.3339 84.3153 78.4987 84.4587 78.7682 84.5073 79.0018 84.4619 79.2009 84.4156 79.3997 84.2964 79.5547 84.1028 79.6665L83.8536 79.2438C83.9541 79.1666 84.0124 79.0843 84.0279 78.998 84.0438 78.9112 84.0194 78.8071 83.9545 78.6853 83.8877 78.5593 83.8097 78.4741 83.7199 78.4308 83.6625 78.4024 83.6058 78.403 83.5505 78.4325 83.4996 78.4594 83.4675 78.5042 83.4544 78.5661 83.4374 78.645 83.4601 78.8035 83.5227 79.0404 83.5848 79.2777 83.6162 79.4608 83.6169 79.5899 83.6171 79.7191 83.5867 79.8366 83.5248 79.9431 83.4627 80.0493 83.364 80.1382 83.2287 80.2101 83.1057 80.2754 82.9723 80.3028 82.8291 80.2911 82.6853 80.2799 82.5542 80.226 82.4359 80.1289 82.3171 80.0319 82.2083 79.8898 82.1093 79.7036 81.965 79.4323 81.9167 79.191 81.9648 78.9789 82.0127 78.767 82.1496 78.5829 82.3744 78.4274ZM83.78 81.4335 83.9798 81.8696C83.837 81.9487 83.7448 82.042 83.7023 82.1498 83.6603 82.2571 83.6629 82.3812 83.7117 82.5224 83.763 82.6715 83.8334 82.7735 83.9229 82.827 84.0122 82.8813 84.0992 82.8938 84.1836 82.8648 84.2381 82.8459 84.2786 82.8141 84.3055 82.7689 84.3331 82.7241 84.3471 82.6571 84.3475 82.5678 84.3482 82.5072 84.3386 82.3716 84.3202 82.1621 84.2962 81.8921 84.3121 81.6916 84.3675 81.5608 84.4451 81.376 84.5749 81.2526 84.7567 81.19 84.8738 81.1495 84.9942 81.1451 85.1192 81.1762 85.2437 81.2076 85.3542 81.2766 85.4507 81.3828 85.5465 81.4897 85.625 81.6308 85.6859 81.8072 85.7854 82.0961 85.7968 82.3343 85.7209 82.5237 85.6441 82.7129 85.502 82.8474 85.2933 82.9275L85.1134 82.4709C85.2248 82.4104 85.2952 82.3383 85.3241 82.2554 85.3533 82.1725 85.3455 82.0656 85.3005 81.9351 85.2541 81.8004 85.1902 81.7039 85.1086 81.6471 85.0564 81.6102 85.0002 81.6019 84.9408 81.6223 84.8863 81.6411 84.8477 81.6802 84.825 81.7393 84.7959 81.8146 84.7936 81.9746 84.8182 82.2185 84.8426 82.4626 84.8449 82.6484 84.8254 82.7759 84.8055 82.9036 84.7569 83.0149 84.6791 83.1104 84.6012 83.2054 84.4899 83.2779 84.345 83.3278 84.2133 83.3732 84.0773 83.3793 83.9376 83.3454 83.7974 83.3117 83.6762 83.238 83.5747 83.1233 83.4724 83.009 83.3872 82.8518 83.3184 82.6522 83.2185 82.3619 83.2086 82.1158 83.2892 81.9141 83.3698 81.7122 83.5335 81.5516 83.78 81.4335ZM83.9093 84.6048 84.9016 84.3575 86.0511 83.1538 86.1903 83.7121 85.3962 84.4994 86.4641 84.8101 86.6007 85.3584 85.0165 84.8328 84.0277 85.0795ZM84.9597 85.964 85.0727 86.4302C84.9175 86.4804 84.8091 86.5545 84.7469 86.6524 84.6852 86.7496 84.6642 86.872 84.685 87.0198 84.7068 87.1761 84.7565 87.2896 84.8343 87.3592 84.9115 87.4294 84.9944 87.4584 85.0829 87.4459 85.14 87.4378 85.1858 87.4143 85.221 87.3751 85.2566 87.3365 85.2831 87.2732 85.3005 87.1857 85.3128 87.1263 85.3291 86.9914 85.3512 86.7822 85.379 86.5127 85.4329 86.319 85.5122 86.2011 85.6235 86.0346 85.7746 85.9381 85.965 85.9114 86.0876 85.894 86.2068 85.9126 86.3235 85.9671 86.4397 86.0217 86.5349 86.1103 86.6094 86.2331 86.6832 86.3563 86.7335 86.5097 86.7593 86.6946 86.8018 86.9969 86.7676 87.2332 86.6569 87.4045 86.5455 87.5757 86.3805 87.6805 86.1604 87.7195L86.0709 87.2368C86.1915 87.1986 86.2745 87.1413 86.3186 87.0654 86.3631 86.9895 86.3759 86.8832 86.3566 86.7466 86.3366 86.6053 86.2925 86.4985 86.2231 86.4272 86.179 86.381 86.1254 86.3621 86.0632 86.3708 86.0062 86.3788 85.9608 86.4098 85.9273 86.4637 85.8842 86.532 85.8515 86.6885 85.8293 86.9326 85.8064 87.177 85.7733 87.3598 85.7298 87.4813 85.6859 87.6029 85.6172 87.7028 85.5226 87.7817 85.4278 87.8601 85.3048 87.91 85.1529 87.9314 85.015 87.9507 84.8803 87.9308 84.7497 87.8707 84.6186 87.8109 84.5136 87.7155 84.4358 87.5838 84.3573 87.4521 84.3036 87.2813 84.2742 87.0724 84.2315 86.7682 84.2686 86.525 84.3864 86.3421 84.5041 86.1593 84.6954 86.0331 84.9597 85.964ZM84.4154 88.9851 86.4321 88.9147 86.407 88.1946 86.8179 88.1802 86.8853 90.1095 86.4743 90.1239 86.4492 89.4055 84.4324 89.4759ZM84.3732 90.5088 86.7965 90.6783 86.6709 92.4746 86.2607 92.4459 86.3521 91.1388 85.8151 91.1012 85.73 92.3176 85.3219 92.289 85.407 91.0726 84.7476 91.0266 84.6528 92.38 84.2443 92.3516ZM84.1564 92.77 86.5235 93.3166 86.3583 94.0318 84.6445 94.0885 86.1612 94.8855 85.9956 95.6024 83.6287 95.0561 83.7312 94.6123 85.5945 95.0427 83.8396 94.1423 83.9458 93.6821 85.9173 93.6439 84.054 93.2138Z" fill="#1B1918" fill-rule="evenodd" transform="matrix(1.00716 0 0 1 -0.581848 290.615)"/><path d="M57.4378 72.9877 56.7703 72.9877 56.5052 72.2975 55.2913 72.2975 55.041 72.9877 54.3905 72.9877 55.5734 69.951 56.2218 69.951ZM56.3088 71.7863 55.8901 70.6595 55.4801 71.7863ZM57.7629 72.9877 57.7629 69.951 58.7464 69.951C59.1191 69.951 59.3622 69.9665 59.4754 69.9969 59.6493 70.0422 59.7957 70.1413 59.913 70.294 60.0303 70.4467 60.089 70.644 60.089 70.8849 60.089 71.0716 60.0551 71.2285 59.9872 71.3551 59.9193 71.4824 59.8339 71.5821 59.7291 71.6548 59.6252 71.727 59.5191 71.7751 59.4118 71.7984 59.2654 71.8275 59.0533 71.8423 58.7755 71.8423L58.3759 71.8423 58.3759 72.9877ZM58.3759 70.465 58.3759 71.3261 58.711 71.3261C58.9528 71.3261 59.1148 71.3106 59.1961 71.2788 59.2773 71.247 59.3409 71.1973 59.3876 71.1295 59.4336 71.0618 59.457 70.9831 59.457 70.8934 59.457 70.7831 59.4245 70.6919 59.3594 70.6198 59.2949 70.5483 59.2124 70.5031 59.1134 70.4855 59.0398 70.4713 58.8928 70.465 58.6722 70.465ZM60.4369 71.9999 61.0337 71.9412C61.0689 72.142 61.1417 72.289 61.252 72.3832 61.3616 72.4765 61.5095 72.5238 61.6961 72.5238 61.8934 72.5238 62.0425 72.482 62.1421 72.398 62.2425 72.3145 62.2927 72.2169 62.2927 72.1051 62.2927 72.0332 62.2715 71.9724 62.2291 71.9221 62.1873 71.8712 62.1139 71.8275 62.0085 71.7906 61.937 71.7651 61.7731 71.7214 61.5179 71.6578 61.1892 71.5764 60.9586 71.476 60.8265 71.3573 60.6398 71.1903 60.5465 70.9867 60.5465 70.7464 60.5465 70.5916 60.5902 70.4473 60.678 70.3122 60.7656 70.178 60.8922 70.0753 61.0568 70.0047 61.2223 69.9347 61.421 69.8995 61.6543 69.8995 62.0361 69.8995 62.3224 69.9828 62.5154 70.1496 62.7078 70.3173 62.8088 70.5398 62.8187 70.8192L62.2058 70.8461C62.1797 70.6898 62.1231 70.5774 62.0367 70.5095 61.9506 70.441 61.8212 70.4071 61.6486 70.4071 61.4704 70.4071 61.3307 70.4431 61.2301 70.5167 61.165 70.5634 61.1326 70.6262 61.1326 70.7046 61.1326 70.7767 61.1629 70.8382 61.2238 70.8892 61.3008 70.9543 61.4889 71.0221 61.7873 71.0921 62.0857 71.1628 62.3061 71.2355 62.4491 71.3106 62.5918 71.3863 62.7036 71.4888 62.7848 71.6196 62.8654 71.7503 62.9057 71.9115 62.9057 72.1032 62.9057 72.2771 62.8576 72.4405 62.7608 72.5917 62.6639 72.7438 62.5275 72.8568 62.3506 72.9304 62.174 73.0046 61.9534 73.0413 61.6897 73.0413 61.3058 73.0413 61.011 72.9529 60.8053 72.7756 60.5995 72.5981 60.4765 72.3393 60.4369 71.9999ZM66.1602 72.9877 65.4927 72.9877 65.2276 72.2975 64.0135 72.2975 63.7634 72.9877 63.1129 72.9877 64.2956 69.951 64.944 69.951ZM65.031 71.7863 64.6125 70.6595 64.2023 71.7863ZM68.4282 71.8712 69.022 72.0593C68.9308 72.3908 68.7796 72.6369 68.5675 72.7981 68.356 72.9586 68.0867 73.0392 67.7607 73.0392 67.3577 73.0392 67.0262 72.9014 66.7668 72.6263 66.5072 72.3505 66.3772 71.9738 66.3772 71.4966 66.3772 70.991 66.508 70.5986 66.7687 70.3186 67.0298 70.0395 67.3725 69.8995 67.7982 69.8995 68.1694 69.8995 68.4712 70.0089 68.7033 70.2289 68.8418 70.3583 68.945 70.5449 69.0142 70.7882L68.407 70.9331C68.3715 70.7755 68.2967 70.651 68.1821 70.5598 68.0682 70.4686 67.9297 70.4234 67.767 70.4234 67.5422 70.4234 67.3592 70.5038 67.2192 70.6658 67.0792 70.827 67.0092 71.0885 67.0092 71.4506 67.0092 71.8345 67.0777 72.1081 67.2164 72.2708 67.3543 72.4341 67.5337 72.5153 67.7543 72.5153 67.9176 72.5153 68.0576 72.4636 68.1751 72.3599 68.2924 72.2566 68.3766 72.0933 68.4282 71.8712ZM69.3932 71.9999 69.9899 71.9412C70.0253 72.142 70.098 72.289 70.2083 72.3832 70.318 72.4765 70.4658 72.5238 70.6525 72.5238 70.8497 72.5238 70.9988 72.482 71.0985 72.398 71.1988 72.3145 71.2491 72.2169 71.2491 72.1051 71.2491 72.0332 71.2279 71.9724 71.1855 71.9221 71.1437 71.8712 71.0703 71.8275 70.9649 71.7906 70.8934 71.7651 70.7294 71.7214 70.4743 71.6578 70.1455 71.5764 69.915 71.476 69.7828 71.3573 69.5962 71.1903 69.5027 70.9867 69.5027 70.7464 69.5027 70.5916 69.5466 70.4473 69.6344 70.3122 69.722 70.178 69.8486 70.0753 70.0132 70.0047 70.1786 69.9347 70.3774 69.8995 70.6107 69.8995 70.9925 69.8995 71.2788 69.9828 71.4718 70.1496 71.6642 70.3173 71.7651 70.5398 71.7751 70.8192L71.1621 70.8461C71.136 70.6898 71.0794 70.5774 70.9931 70.5095 70.907 70.441 70.7776 70.4071 70.6049 70.4071 70.4268 70.4071 70.2868 70.4431 70.1865 70.5167 70.1214 70.5634 70.0889 70.6262 70.0889 70.7046 70.0889 70.7767 70.1192 70.8382 70.1801 70.8892 70.2571 70.9543 70.4452 71.0221 70.7437 71.0921 71.0419 71.1628 71.2625 71.2355 71.4054 71.3106 71.5481 71.3863 71.6599 71.4888 71.7412 71.6196 71.8218 71.7503 71.8621 71.9115 71.8621 72.1032 71.8621 72.2771 71.8139 72.4405 71.7172 72.5917 71.6203 72.7438 71.4839 72.8568 71.307 72.9304 71.1303 73.0046 70.9097 73.0413 70.6459 73.0413 70.2622 73.0413 69.9674 72.9529 69.7616 72.7756 69.5559 72.5981 69.4327 72.3393 69.3932 71.9999Z" fill="#1B1918" fill-rule="evenodd" transform="matrix(1.00716 0 0 1 -0.581848 290.615)"/><path d="M47.8324 106.743 48.7156 105.149 49.0373 105.327 48.1539 106.921ZM49.2588 106.853 49.596 106.978C49.5623 107.096 49.5629 107.195 49.5975 107.274 49.6321 107.353 49.6993 107.418 49.7998 107.467 49.9063 107.519 49.9977 107.536 50.0737 107.516 50.1496 107.498 50.2024 107.458 50.2319 107.398 50.2508 107.359 50.2552 107.321 50.2457 107.283 50.2365 107.244 50.2083 107.201 50.1613 107.154 50.1294 107.121 50.0527 107.055 49.9315 106.953 49.7757 106.823 49.6779 106.708 49.6378 106.609 49.5809 106.47 49.5843 106.336 49.6475 106.206 49.6883 106.123 49.7498 106.056 49.8325 106.007 49.9152 105.957 50.0104 105.935 50.1178 105.94 50.2255 105.946 50.342 105.979 50.4677 106.041 50.6735 106.141 50.806 106.262 50.8663 106.402 50.9259 106.543 50.9218 106.69 50.8535 106.843L50.5161 106.696C50.543 106.605 50.5422 106.53 50.5135 106.47 50.4849 106.411 50.424 106.358 50.3311 106.313 50.2351 106.266 50.15 106.249 50.0766 106.262 50.0293 106.27 49.9952 106.295 49.9744 106.338 49.9555 106.376 49.9557 106.418 49.975 106.461 49.9994 106.516 50.083 106.603 50.2255 106.719 50.3678 106.835 50.4677 106.933 50.525 107.011 50.5821 107.089 50.6154 107.174 50.6249 107.266 50.6338 107.357 50.6132 107.455 50.5628 107.558 50.5172 107.652 50.4482 107.727 50.3562 107.784 50.2639 107.84 50.1606 107.865 50.0459 107.858 49.9311 107.852 49.8026 107.814 49.6603 107.744 49.4533 107.643 49.3175 107.518 49.2533 107.368 49.189 107.219 49.1907 107.047 49.2586 106.853ZM50.6058 108.159 51.3469 106.495 51.6831 106.645 51.3916 107.3 52.05 107.593 52.3416 106.938 52.6776 107.087 51.9365 108.752 51.6006 108.602 51.9246 107.875 51.2661 107.581 50.9422 108.309ZM53.8389 109.472 53.4628 109.335 53.4547 108.892 52.7703 108.643 52.4878 108.981 52.1211 108.847 53.411 107.378 53.7765 107.511ZM53.4488 108.563 53.4441 107.842 52.9818 108.393ZM54.0172 109.544 54.5757 107.825 54.9254 107.939 54.462 109.365 55.3318 109.648 55.2368 109.94ZM55.4994 110.014 55.9365 108.261 56.2933 108.35 55.9306 109.805 56.818 110.026 56.7436 110.324ZM57.659 110.556 57.944 108.756 58.7091 108.878C58.9015 108.908 59.0383 108.947 59.1204 108.993 59.2024 109.039 59.2633 109.107 59.3026 109.198 59.3418 109.289 59.3528 109.388 59.3361 109.494 59.3146 109.629 59.257 109.735 59.1641 109.81 59.0709 109.885 58.943 109.922 58.7816 109.92 58.8531 109.978 58.91 110.039 58.9524 110.102 58.9948 110.165 59.0482 110.273 59.1127 110.426L59.2771 110.812 58.8425 110.743 58.6421 110.31C58.5708 110.155 58.521 110.057 58.4923 110.015 58.4637 109.973 58.4312 109.943 58.395 109.923 58.3585 109.904 58.2989 109.887 58.2149 109.874L58.1417 109.862 58.0227 110.614ZM58.1871 109.575 58.4559 109.618C58.63 109.645 58.7401 109.655 58.7859 109.647 58.8315 109.64 58.8694 109.619 58.8998 109.587 58.9299 109.555 58.9496 109.512 58.9581 109.458 58.9676 109.397 58.9592 109.346 58.9326 109.304 58.9063 109.262 58.8646 109.231 58.8069 109.211 58.7782 109.203 58.6902 109.187 58.5428 109.164L58.2594 109.119ZM59.4604 110.853 59.6822 109.045 60.0472 109.09 59.8254 110.898ZM60.1126 110.326 60.4725 110.322C60.4831 110.444 60.5189 110.536 60.5798 110.598 60.6405 110.659 60.7264 110.695 60.8379 110.705 60.9557 110.716 61.0471 110.698 61.1111 110.653 61.1754 110.609 61.2106 110.553 61.2163 110.486 61.2201 110.443 61.2106 110.406 61.1879 110.373 61.1656 110.341 61.1241 110.311 61.063 110.283 61.0216 110.264 60.926 110.23 60.7766 110.178 60.5845 110.112 60.4519 110.041 60.379 109.962 60.2763 109.853 60.2311 109.726 60.2436 109.583 60.2519 109.49 60.2856 109.406 60.345 109.33 60.4044 109.254 60.4854 109.2 60.5877 109.166 60.6901 109.133 60.8108 109.122 60.9501 109.134 61.1784 109.154 61.3451 109.219 61.4518 109.329 61.558 109.439 61.6068 109.578 61.5981 109.745L61.2303 109.729C61.2227 109.634 61.1949 109.564 61.147 109.519 61.0988 109.474 61.0233 109.447 60.9202 109.438 60.8138 109.428 60.7283 109.443 60.6642 109.481 60.6231 109.506 60.6004 109.542 60.5962 109.589 60.5923 109.632 60.6074 109.67 60.6411 109.704 60.6838 109.747 60.7926 109.797 60.9671 109.854 61.1419 109.912 61.2698 109.967 61.3512 110.02 61.4327 110.072 61.4942 110.139 61.536 110.222 61.5773 110.304 61.5928 110.403 61.5828 110.517 61.5737 110.621 61.5364 110.716 61.4706 110.802 61.4049 110.887 61.3175 110.948 61.2078 110.982 61.0984 111.018 60.9646 111.028 60.807 111.014 60.5775 110.994 60.4059 110.926 60.2922 110.809 60.1785 110.692 60.1185 110.531 60.1126 110.326ZM61.8522 111.087 61.8522 109.265 63.2029 109.265 63.2029 109.573 62.22 109.573 62.22 109.977 63.1346 109.977 63.1346 110.284 62.22 110.284 62.22 110.78 63.2376 110.78 63.2376 111.087ZM65.8007 110.959 65.4013 110.987 65.2138 110.585 64.4871 110.636 64.3662 111.06 63.977 111.087 64.5578 109.22 64.9459 109.193ZM65.0746 110.288 64.7771 109.631 64.5788 110.322ZM66.0024 110.936 65.7803 109.128 66.1356 109.085 67.0241 110.201 66.8758 108.994 67.2152 108.952 67.4372 110.76 67.0705 110.805 66.1969 109.716 66.3417 110.895ZM67.4608 108.856 68.1206 108.728C68.2693 108.699 68.3847 108.688 68.4674 108.696 68.5785 108.706 68.6791 108.744 68.769 108.808 68.8591 108.872 68.9351 108.958 68.9964 109.064 69.0573 109.171 69.1041 109.308 69.1368 109.476 69.1654 109.623 69.1718 109.754 69.1559 109.867 69.1366 110.006 69.0933 110.124 69.0256 110.22 68.9752 110.294 68.8999 110.358 68.8 110.412 68.7253 110.453 68.6212 110.487 68.4873 110.512L67.8084 110.644ZM67.8805 109.089 68.1106 110.273 68.3802 110.22C68.4808 110.201 68.5527 110.181 68.5955 110.161 68.6509 110.135 68.6948 110.101 68.7268 110.059 68.7586 110.016 68.7785 109.952 68.7877 109.867 68.7962 109.783 68.7875 109.671 68.7607 109.533 68.7338 109.394 68.7007 109.291 68.6621 109.221 68.6231 109.152 68.5777 109.101 68.5259 109.068 68.4738 109.035 68.4127 109.018 68.3423 109.017 68.2897 109.015 68.19 109.029 68.0426 109.057ZM70.0469 109.525 70.3814 109.392C70.4351 109.502 70.5012 109.575 70.5806 109.611 70.659 109.647 70.7521 109.649 70.8597 109.619 70.9736 109.586 71.0527 109.537 71.0962 109.472 71.1403 109.407 71.1532 109.343 71.1348 109.278 71.1227 109.237 71.1004 109.205 71.0677 109.183 71.0353 109.161 70.9857 109.148 70.9188 109.144 70.8732 109.141 70.7714 109.143 70.6139 109.149 70.4107 109.156 70.2611 109.136 70.1653 109.09 70.0302 109.024 69.9426 108.922 69.9029 108.784 69.8772 108.694 69.8787 108.604 69.9069 108.511 69.9351 108.419 69.9913 108.339 70.0745 108.271 70.1585 108.204 70.2671 108.15 70.4017 108.112 70.6219 108.049 70.8009 108.05 70.9398 108.114 71.0784 108.178 71.1736 108.29 71.2253 108.45L70.8762 108.567C70.8353 108.481 70.7842 108.425 70.7233 108.401 70.6622 108.375 70.5818 108.377 70.4824 108.405 70.3797 108.435 70.3048 108.479 70.259 108.538 70.2293 108.576 70.2208 108.617 70.234 108.662 70.2459 108.704 70.2736 108.735 70.3171 108.754 70.3723 108.779 70.4919 108.787 70.6756 108.778 70.8595 108.769 70.9986 108.775 71.0934 108.794 71.1882 108.814 71.2697 108.855 71.3382 108.917 71.4063 108.979 71.4561 109.065 71.4879 109.176 71.5166 109.276 71.5159 109.378 71.4852 109.482 71.4544 109.585 71.3944 109.673 71.3047 109.745 71.2149 109.817 71.0938 109.874 70.9418 109.918 70.7203 109.982 70.5356 109.979 70.3877 109.911 70.2397 109.843 70.1258 109.714 70.0469 109.525ZM71.9181 109.572 71.2949 107.86 71.6408 107.734 71.886 108.408 72.5633 108.162 72.3181 107.488 72.6636 107.362 73.2867 109.074 72.9412 109.2 72.6687 108.451 71.9914 108.698 72.264 109.446ZM73.614 108.906 72.902 107.229 73.2405 107.086 73.9525 108.763ZM74.2811 108.615 73.5111 106.963 73.8354 106.812 75.0255 107.6 74.5114 106.497 74.8213 106.353 75.5912 108.004 75.2563 108.16 74.0887 107.393 74.5909 108.47ZM75.935 107.821 75.1078 106.198 76.3113 105.585 76.4513 105.86 75.5755 106.306 75.759 106.666 76.5737 106.25 76.713 106.524 75.8981 106.939 76.1232 107.381 77.0299 106.919 77.1694 107.192Z" fill="#1B1918" fill-rule="evenodd" transform="matrix(1.00716 0 0 1 -0.581848 290.615)"/></g></svg>